<svg width="25" height="25" version="1.1" viewBox="0 0 25 25" xmlns="http://www.w3.org/2000/svg">
 <path d="m22 21 1.5e-5 -5.4522-1.5e-5 -12.548-4-2h-11l-4 2 1.13e-5 13-1.13e-5 5 1 1h17z" fill="#ffffff" stroke="#000000" stroke-linecap="round" stroke-linejoin="round" stroke-width="2"/>
 <path d="m6 13v-6h13l-7e-6 6z" fill="none" stroke="#000000" stroke-width="2" stroke-linecap="round" stroke-linejoin="round"/>
 <path d="m7 16h1l1 1v1l-1 1h-1l-1-1v-1z" fill="none" stroke="#000000" stroke-width="2" stroke-linecap="round" stroke-linejoin="round"/>
 <path d="m17 16h1l1 1v1l-1 1h-1l-1-1v-1z" fill="none" stroke="#000000" stroke-width="2" stroke-linecap="round" stroke-linejoin="round"/>
 <path d="m21 22-4e-6 2h-2v-2" fill="none" stroke="#000000" stroke-width="2" stroke-linecap="round" stroke-linejoin="round"/>
 <path d="m6 22-3.8e-6 2h-2v-2" fill="none" stroke="#000000" stroke-width="2" stroke-linecap="round" stroke-linejoin="round"/>
 <path d="m12.5 7-4e-6 5" fill="none" stroke="#000000" stroke-width="2"/>
 <path d="m1 12 3.8e-6 -4h2" stroke-linejoin="round" fill="none" stroke="#000000" stroke-width="2" stroke-linecap="round"/>
 <path d="m24 12v-4h-2" stroke-linejoin="round" fill="none" stroke="#000000" stroke-width="2" stroke-linecap="round"/>
 <path d="m9 4 7 3.8e-6" fill="none" stroke="#000000" stroke-width="2" stroke-linecap="round"/>
 <path d="m12 16h1" fill="none" stroke="#000000" stroke-width="2" stroke-linecap="round"/>
 <path d="m12 19h1" fill="none" stroke="#000000" stroke-width="2" stroke-linecap="round"/>
</svg>
