<?xml version="1.0" encoding="UTF-8" standalone="no"?>
<svg
   width="25"
   height="25"
   version="1.1"
   viewBox="0 0 25 25"
   id="svg7"
   sodipodi:docname="metro.svg"
   inkscape:version="1.4 (e7c3feb1, 2024-10-09)"
   xmlns:inkscape="http://www.inkscape.org/namespaces/inkscape"
   xmlns:sodipodi="http://sodipodi.sourceforge.net/DTD/sodipodi-0.dtd"
   xmlns="http://www.w3.org/2000/svg"
   xmlns:svg="http://www.w3.org/2000/svg">
  <defs
     id="defs7" />
  <sodipodi:namedview
     id="namedview7"
     pagecolor="#ffffff"
     bordercolor="#000000"
     borderopacity="0.25"
     inkscape:showpageshadow="2"
     inkscape:pageopacity="0.0"
     inkscape:pagecheckerboard="0"
     inkscape:deskcolor="#d1d1d1"
     inkscape:zoom="12.449005"
     inkscape:cx="11.04506"
     inkscape:cy="19.439305"
     inkscape:window-width="1200"
     inkscape:window-height="1021"
     inkscape:window-x="3023"
     inkscape:window-y="224"
     inkscape:window-maximized="0"
     inkscape:current-layer="svg7" />
  <path
     d="M 23.992869,19.832296 V 15.772524 L 21.994109,3.0370177 18.995969,1.0071314 H 6.0040308 L 3.0058912,3.0370177 1.0071314,16.231278 v 3.600815 L 3.0058912,21.86198 H 21.994109 Z"
     fill="#ffffff"
     stroke="#000000"
     stroke-linecap="round"
     stroke-linejoin="round"
     stroke-width="2.01427"
     id="path1" />
  <path
     d="m5 12 1-8h5v8z"
     stroke-linejoin="round"
     fill="none"
     stroke="#000000"
     stroke-linecap="round"
     stroke-width="2"
     id="path2" />
  <path
     d="m20 12-1-8h-5v8z"
     stroke-linejoin="round"
     fill="none"
     stroke="#000000"
     stroke-linecap="round"
     stroke-width="2"
     id="path3" />
  <path
     d="m6 15h1l1 1v1l-1 1h-1l-1-1v-1z"
     stroke-linejoin="round"
     fill="none"
     stroke="#000000"
     stroke-linecap="round"
     stroke-width="2"
     id="path4" />
  <path
     d="m18 15h1l1 1v1l-1 1h-1l-1-1v-1z"
     stroke-linejoin="round"
     fill="none"
     stroke="#000000"
     stroke-linecap="round"
     stroke-width="2"
     id="path5" />
  <path
     d="m20 22-3e-6 2"
     stroke-linejoin="round"
     fill="none"
     stroke="#000000"
     stroke-linecap="round"
     stroke-width="2"
     id="path6" />
  <path
     d="m5 22v2"
     stroke-linejoin="round"
     fill="none"
     stroke="#000000"
     stroke-linecap="round"
     stroke-width="2"
     id="path7" />
</svg>
