<svg width="25" height="25" version="1.1" viewBox="0 0 25 25" xmlns="http://www.w3.org/2000/svg">
 <path d="m24 19.548v-4l-2-12.548-3-2h-13l-3 2-2 13v3.5478l2 2h19z" fill="#ffffff" stroke="#000000" stroke-linecap="round" stroke-linejoin="round" stroke-width="2"/>
 <path d="m5 12 1-8h5v8z" stroke-linejoin="round" fill="none" stroke="#000000" stroke-linecap="round" stroke-width="2"/>
 <path d="m20 12-1-8h-5v8z" stroke-linejoin="round" fill="none" stroke="#000000" stroke-linecap="round" stroke-width="2"/>
 <path d="m6 15h1l1 1v1l-1 1h-1l-1-1v-1z" stroke-linejoin="round" fill="none" stroke="#000000" stroke-linecap="round" stroke-width="2"/>
 <path d="m18 15h1l1 1v1l-1 1h-1l-1-1v-1z" stroke-linejoin="round" fill="none" stroke="#000000" stroke-linecap="round" stroke-width="2"/>
 <path d="m20 22-3e-6 2" stroke-linejoin="round" fill="none" stroke="#000000" stroke-linecap="round" stroke-width="2"/>
 <path d="m5 22v2" stroke-linejoin="round" fill="none" stroke="#000000" stroke-linecap="round" stroke-width="2"/>
</svg>
