<svg width="25" height="25" version="1.1" viewBox="0 0 25 25" xmlns="http://www.w3.org/2000/svg">
 <path d="m21 8v7l-3 7-2 1h-7l-2-1-3-7v-7l4-4h9z" fill="#ffffff" stroke="#000000" stroke-linecap="round" stroke-linejoin="round" stroke-width="2"/>
 <path d="m9 16h1l1 1v1l-1 1h-1l-1-1v-1z" stroke-linejoin="round" stroke-linecap="round" fill="none" stroke="#000000" stroke-width="2"/>
 <path d="m15 16h1l1 1v1l-1 1h-1l-1-1v-1z" stroke-linejoin="round" stroke-linecap="round" fill="none" stroke="#000000" stroke-width="2"/>
 <path d="m18 22-4e-6 2" stroke-linecap="round" fill="none" stroke="#000000" stroke-width="2"/>
 <path d="m7 22v2" stroke-linecap="round" fill="none" stroke="#000000" stroke-width="2"/>
 <path d="m7 1h11" stroke-linecap="round" fill="none" stroke="#000000" stroke-width="2"/>
 <path d="m9 1 2 3" stroke-linecap="round" fill="none" stroke="#000000" stroke-width="2"/>
 <path d="m16.32 1-2.3196 3" stroke-linecap="round" fill="none" stroke="#000000" stroke-width="2"/>
 <path d="m7 11 1 2h9l1-2-1-3-2-1h-5l-2 1z" stroke-linecap="round" fill="none" stroke="#000000" stroke-width="2" stroke-linejoin="round"/>
</svg>
